<mxfile host="65bd71144e">
    <diagram id="2MTchfFb_s9nYzjPxEpD" name="Page-1">
        <mxGraphModel dx="1124" dy="620" grid="1" gridSize="10" guides="1" tooltips="1" connect="1" arrows="1" fold="1" page="1" pageScale="1" pageWidth="827" pageHeight="1169" math="0" shadow="0">
            <root>
                <mxCell id="0"/>
                <mxCell id="1" parent="0"/>
                <mxCell id="gwxy_xO0gbG-nAFQHQx_-2" value="" style="rounded=0;whiteSpace=wrap;html=1;fillColor=#eeeeee;strokeColor=#36393d;fontColor=#080808;" parent="1" vertex="1">
                    <mxGeometry x="38" y="40" width="800" height="400" as="geometry"/>
                </mxCell>
                <mxCell id="gwxy_xO0gbG-nAFQHQx_-7" value="" style="rounded=0;whiteSpace=wrap;html=1;fillColor=#eeeeee;strokeColor=#36393d;fontColor=#080808;" parent="1" vertex="1">
                    <mxGeometry x="38" y="40" width="800" height="60" as="geometry"/>
                </mxCell>
                <mxCell id="gwxy_xO0gbG-nAFQHQx_-8" value="" style="rounded=0;whiteSpace=wrap;html=1;fillColor=#eeeeee;strokeColor=#36393d;fontColor=#080808;" parent="1" vertex="1">
                    <mxGeometry x="70" y="50" width="740" height="40" as="geometry"/>
                </mxCell>
                <mxCell id="gwxy_xO0gbG-nAFQHQx_-9" value="NETFLIX" style="rounded=0;whiteSpace=wrap;html=1;fillColor=#eeeeee;strokeColor=#36393d;fontColor=#080808;" parent="1" vertex="1">
                    <mxGeometry x="70" y="50" width="120" height="40" as="geometry"/>
                </mxCell>
                <mxCell id="gwxy_xO0gbG-nAFQHQx_-10" value="Language" style="rounded=0;whiteSpace=wrap;html=1;fontSize=10;align=right;fillColor=#CCFFFF;strokeColor=#36393d;fontColor=#080808;" parent="1" vertex="1">
                    <mxGeometry x="690" y="50" width="60" height="40" as="geometry"/>
                </mxCell>
                <mxCell id="gwxy_xO0gbG-nAFQHQx_-11" value="Sign In" style="rounded=0;whiteSpace=wrap;html=1;fontSize=10;fillColor=#FFCCCC;strokeColor=#36393d;fontColor=#080808;" parent="1" vertex="1">
                    <mxGeometry x="750" y="50" width="60" height="40" as="geometry"/>
                </mxCell>
                <mxCell id="gwxy_xO0gbG-nAFQHQx_-14" value="" style="rounded=0;whiteSpace=wrap;html=1;fillColor=#eeeeee;strokeColor=#36393d;fontColor=#080808;" parent="1" vertex="1">
                    <mxGeometry x="234.5" y="150" width="411" height="230" as="geometry"/>
                </mxCell>
                <mxCell id="gwxy_xO0gbG-nAFQHQx_-15" value="Unlimited movies, TV shows and more." style="rounded=0;whiteSpace=wrap;html=1;fillColor=#eeeeee;strokeColor=#36393d;fontColor=#080808;" parent="1" vertex="1">
                    <mxGeometry x="285" y="180" width="310" height="60" as="geometry"/>
                </mxCell>
                <mxCell id="gwxy_xO0gbG-nAFQHQx_-16" value="Watch anywhere. Cancel anytime." style="rounded=0;whiteSpace=wrap;html=1;fillColor=#eeeeee;strokeColor=#36393d;fontColor=#080808;" parent="1" vertex="1">
                    <mxGeometry x="285" y="240" width="310" height="30" as="geometry"/>
                </mxCell>
                <mxCell id="gwxy_xO0gbG-nAFQHQx_-17" value="&lt;font style=&quot;font-size: 9px&quot;&gt;Ready to watch? Wnter your email to create or restart your membership.&lt;/font&gt;" style="rounded=0;whiteSpace=wrap;html=1;fillColor=#eeeeee;strokeColor=#36393d;fontColor=#080808;" parent="1" vertex="1">
                    <mxGeometry x="285" y="270" width="310" height="30" as="geometry"/>
                </mxCell>
                <mxCell id="gwxy_xO0gbG-nAFQHQx_-18" value="Email" style="rounded=0;whiteSpace=wrap;html=1;fillColor=#FFFF99;strokeColor=#36393d;fontColor=#080808;" parent="1" vertex="1">
                    <mxGeometry x="285" y="300" width="205" height="40" as="geometry"/>
                </mxCell>
                <mxCell id="gwxy_xO0gbG-nAFQHQx_-19" value="&amp;nbsp; Get Started" style="rounded=0;whiteSpace=wrap;html=1;align=left;fillColor=#FFCCCC;strokeColor=#36393d;fontColor=#080808;" parent="1" vertex="1">
                    <mxGeometry x="490" y="300" width="105" height="40" as="geometry"/>
                </mxCell>
                <mxCell id="gwxy_xO0gbG-nAFQHQx_-26" value="" style="rounded=0;whiteSpace=wrap;html=1;fillColor=#eeeeee;strokeColor=#36393d;fontColor=#080808;" parent="1" vertex="1">
                    <mxGeometry x="38" y="1240" width="800" height="400" as="geometry"/>
                </mxCell>
                <mxCell id="gwxy_xO0gbG-nAFQHQx_-27" value="+" style="rounded=0;whiteSpace=wrap;html=1;fillColor=#eeeeee;strokeColor=#36393d;fontColor=#080808;" parent="1" vertex="1">
                    <mxGeometry x="38" y="1640" width="800" height="200" as="geometry"/>
                </mxCell>
                <mxCell id="gwxy_xO0gbG-nAFQHQx_-48" value="" style="rounded=0;whiteSpace=wrap;html=1;fillColor=#eeeeee;strokeColor=#36393d;fontColor=#080808;" parent="1" vertex="1">
                    <mxGeometry x="88" y="1290" width="700" height="300" as="geometry"/>
                </mxCell>
                <mxCell id="gwxy_xO0gbG-nAFQHQx_-49" value="Frequently Asked Questions" style="rounded=0;whiteSpace=wrap;html=1;fontStyle=1;fontSize=17;fillColor=#eeeeee;strokeColor=#36393d;fontColor=#080808;" parent="1" vertex="1">
                    <mxGeometry x="88" y="1290" width="700" height="50" as="geometry"/>
                </mxCell>
                <mxCell id="gwxy_xO0gbG-nAFQHQx_-50" value="&amp;nbsp; &amp;nbsp; &amp;nbsp; &amp;nbsp; &amp;nbsp; &amp;nbsp; &amp;nbsp; &amp;nbsp; &amp;nbsp;What is Netflix?" style="rounded=0;whiteSpace=wrap;html=1;align=left;fillColor=#FFCCCC;strokeColor=#36393d;fontColor=#080808;" parent="1" vertex="1">
                    <mxGeometry x="88" y="1360" width="700" height="40" as="geometry"/>
                </mxCell>
                <mxCell id="gwxy_xO0gbG-nAFQHQx_-51" value="&amp;nbsp; &amp;nbsp; &amp;nbsp; &amp;nbsp; &amp;nbsp; &amp;nbsp; &amp;nbsp; &amp;nbsp; How much does Netflix cost?" style="rounded=0;whiteSpace=wrap;html=1;align=left;fillColor=#FFCCCC;strokeColor=#36393d;fontColor=#080808;" parent="1" vertex="1">
                    <mxGeometry x="88" y="1400" width="700" height="40" as="geometry"/>
                </mxCell>
                <mxCell id="gwxy_xO0gbG-nAFQHQx_-52" value="&amp;nbsp; &amp;nbsp; &amp;nbsp; &amp;nbsp; &amp;nbsp; &amp;nbsp; &amp;nbsp; &amp;nbsp; Where can I watch?" style="rounded=0;whiteSpace=wrap;html=1;align=left;fillColor=#FFCCCC;strokeColor=#36393d;fontColor=#080808;" parent="1" vertex="1">
                    <mxGeometry x="88" y="1440" width="700" height="40" as="geometry"/>
                </mxCell>
                <mxCell id="gwxy_xO0gbG-nAFQHQx_-53" value="&amp;nbsp; &amp;nbsp; &amp;nbsp; &amp;nbsp; &amp;nbsp; &amp;nbsp; &amp;nbsp; &amp;nbsp;How do I cancel?&amp;nbsp;" style="rounded=0;whiteSpace=wrap;html=1;align=left;fillColor=#FFCCCC;strokeColor=#36393d;fontColor=#080808;" parent="1" vertex="1">
                    <mxGeometry x="88" y="1480" width="700" height="40" as="geometry"/>
                </mxCell>
                <mxCell id="gwxy_xO0gbG-nAFQHQx_-55" value="" style="rounded=0;whiteSpace=wrap;html=1;fillColor=#eeeeee;strokeColor=#36393d;fontColor=#080808;" parent="1" vertex="1">
                    <mxGeometry x="128" y="1520" width="620" height="70" as="geometry"/>
                </mxCell>
                <mxCell id="gwxy_xO0gbG-nAFQHQx_-56" value="Ready to watch? Enter your email to create or restart your membership." style="rounded=0;whiteSpace=wrap;html=1;fillColor=#eeeeee;strokeColor=#36393d;fontColor=#080808;" parent="1" vertex="1">
                    <mxGeometry x="128" y="1520" width="620" height="20" as="geometry"/>
                </mxCell>
                <mxCell id="gwxy_xO0gbG-nAFQHQx_-57" value="Email Address" style="rounded=0;whiteSpace=wrap;html=1;fillColor=#FFFF99;strokeColor=#36393d;fontColor=#080808;" parent="1" vertex="1">
                    <mxGeometry x="188" y="1548" width="340" height="35" as="geometry"/>
                </mxCell>
                <mxCell id="gwxy_xO0gbG-nAFQHQx_-58" value="Get Started" style="rounded=0;whiteSpace=wrap;html=1;fillColor=#FFCCCC;fontStyle=1;fontSize=13;strokeColor=#36393d;fontColor=#080808;" parent="1" vertex="1">
                    <mxGeometry x="528" y="1548" width="180" height="35" as="geometry"/>
                </mxCell>
                <mxCell id="gwxy_xO0gbG-nAFQHQx_-59" value="" style="group;fillColor=#eeeeee;strokeColor=#36393d;fontColor=#080808;" parent="1" vertex="1" connectable="0">
                    <mxGeometry x="40" y="440" width="800" height="400" as="geometry"/>
                </mxCell>
                <mxCell id="gwxy_xO0gbG-nAFQHQx_-6" value="" style="rounded=0;whiteSpace=wrap;html=1;fillColor=#eeeeee;strokeColor=#36393d;fontColor=#080808;" parent="gwxy_xO0gbG-nAFQHQx_-59" vertex="1">
                    <mxGeometry x="-2" width="800" height="200" as="geometry"/>
                </mxCell>
                <mxCell id="gwxy_xO0gbG-nAFQHQx_-33" value="" style="rounded=0;whiteSpace=wrap;html=1;fillColor=#eeeeee;strokeColor=#36393d;fontColor=#080808;" parent="gwxy_xO0gbG-nAFQHQx_-59" vertex="1">
                    <mxGeometry x="78" y="30" width="320" height="140" as="geometry"/>
                </mxCell>
                <mxCell id="gwxy_xO0gbG-nAFQHQx_-34" value="" style="rounded=0;whiteSpace=wrap;html=1;fillColor=#eeeeee;strokeColor=#36393d;fontColor=#080808;" parent="gwxy_xO0gbG-nAFQHQx_-59" vertex="1">
                    <mxGeometry x="398" y="30" width="320" height="140" as="geometry"/>
                </mxCell>
                <mxCell id="gwxy_xO0gbG-nAFQHQx_-35" value="Enjoy on your TV." style="rounded=0;whiteSpace=wrap;html=1;fillColor=#eeeeee;strokeColor=#36393d;fontColor=#080808;align=left;" parent="gwxy_xO0gbG-nAFQHQx_-59" vertex="1">
                    <mxGeometry x="78" y="50" width="320" height="50" as="geometry"/>
                </mxCell>
                <mxCell id="gwxy_xO0gbG-nAFQHQx_-36" value="Watch on smart TVs, PlayStation, Xbox, Chromecast, Apple TV, Blu-ray players and more." style="rounded=0;whiteSpace=wrap;html=1;fillColor=#eeeeee;strokeColor=#36393d;fontColor=#080808;align=left;" parent="gwxy_xO0gbG-nAFQHQx_-59" vertex="1">
                    <mxGeometry x="78" y="100" width="320" height="50" as="geometry"/>
                </mxCell>
                <mxCell id="gwxy_xO0gbG-nAFQHQx_-37" value="Image / animation" style="rounded=0;whiteSpace=wrap;html=1;fillColor=#FF99CC;strokeColor=#36393d;fontColor=#080808;" parent="gwxy_xO0gbG-nAFQHQx_-59" vertex="1">
                    <mxGeometry x="438" y="30" width="240" height="140" as="geometry"/>
                </mxCell>
                <mxCell id="gwxy_xO0gbG-nAFQHQx_-61" value="" style="group;fillColor=#eeeeee;strokeColor=#36393d;fontColor=#080808;" parent="gwxy_xO0gbG-nAFQHQx_-59" vertex="1" connectable="0">
                    <mxGeometry x="-2" y="200" width="800" height="200" as="geometry"/>
                </mxCell>
                <mxCell id="gwxy_xO0gbG-nAFQHQx_-3" value="" style="rounded=0;whiteSpace=wrap;html=1;fillColor=#eeeeee;strokeColor=#36393d;fontColor=#080808;" parent="gwxy_xO0gbG-nAFQHQx_-61" vertex="1">
                    <mxGeometry width="800" height="200" as="geometry"/>
                </mxCell>
                <mxCell id="gwxy_xO0gbG-nAFQHQx_-28" value="" style="rounded=0;whiteSpace=wrap;html=1;fillColor=#eeeeee;strokeColor=#36393d;fontColor=#080808;" parent="gwxy_xO0gbG-nAFQHQx_-61" vertex="1">
                    <mxGeometry x="80" y="30" width="320" height="140" as="geometry"/>
                </mxCell>
                <mxCell id="gwxy_xO0gbG-nAFQHQx_-29" value="" style="rounded=0;whiteSpace=wrap;html=1;fillColor=#eeeeee;strokeColor=#36393d;fontColor=#080808;" parent="gwxy_xO0gbG-nAFQHQx_-61" vertex="1">
                    <mxGeometry x="400" y="30" width="320" height="140" as="geometry"/>
                </mxCell>
                <mxCell id="gwxy_xO0gbG-nAFQHQx_-30" value="Download your shows to watch offline.&amp;nbsp;" style="rounded=0;whiteSpace=wrap;html=1;fillColor=#eeeeee;strokeColor=#36393d;fontColor=#080808;align=left;" parent="gwxy_xO0gbG-nAFQHQx_-61" vertex="1">
                    <mxGeometry x="400" y="50" width="320" height="50" as="geometry"/>
                </mxCell>
                <mxCell id="gwxy_xO0gbG-nAFQHQx_-31" value="Save your favourites easily and always have something to watch." style="rounded=0;whiteSpace=wrap;html=1;fillColor=#eeeeee;strokeColor=#36393d;fontColor=#080808;align=left;" parent="gwxy_xO0gbG-nAFQHQx_-61" vertex="1">
                    <mxGeometry x="400" y="100" width="320" height="50" as="geometry"/>
                </mxCell>
                <mxCell id="gwxy_xO0gbG-nAFQHQx_-32" value="Image / animation" style="rounded=0;whiteSpace=wrap;html=1;fillColor=#FF99CC;strokeColor=#36393d;fontColor=#080808;" parent="gwxy_xO0gbG-nAFQHQx_-61" vertex="1">
                    <mxGeometry x="110" y="30" width="240" height="140" as="geometry"/>
                </mxCell>
                <mxCell id="gwxy_xO0gbG-nAFQHQx_-62" value="S" style="group;fillColor=#eeeeee;strokeColor=#36393d;fontColor=#080808;" parent="1" vertex="1" connectable="0">
                    <mxGeometry x="38" y="840" width="800" height="400" as="geometry"/>
                </mxCell>
                <mxCell id="gwxy_xO0gbG-nAFQHQx_-63" value="" style="rounded=0;whiteSpace=wrap;html=1;fillColor=#eeeeee;strokeColor=#36393d;fontColor=#080808;" parent="gwxy_xO0gbG-nAFQHQx_-62" vertex="1">
                    <mxGeometry width="800" height="200" as="geometry"/>
                </mxCell>
                <mxCell id="gwxy_xO0gbG-nAFQHQx_-64" value="" style="rounded=0;whiteSpace=wrap;html=1;fillColor=#eeeeee;strokeColor=#36393d;fontColor=#080808;" parent="gwxy_xO0gbG-nAFQHQx_-62" vertex="1">
                    <mxGeometry x="80" y="30" width="320" height="140" as="geometry"/>
                </mxCell>
                <mxCell id="gwxy_xO0gbG-nAFQHQx_-65" value="" style="rounded=0;whiteSpace=wrap;html=1;fillColor=#eeeeee;strokeColor=#36393d;fontColor=#080808;" parent="gwxy_xO0gbG-nAFQHQx_-62" vertex="1">
                    <mxGeometry x="400" y="30" width="320" height="140" as="geometry"/>
                </mxCell>
                <mxCell id="gwxy_xO0gbG-nAFQHQx_-66" value="Watch everywhere." style="rounded=0;whiteSpace=wrap;html=1;fillColor=#eeeeee;strokeColor=#36393d;fontColor=#080808;align=left;" parent="gwxy_xO0gbG-nAFQHQx_-62" vertex="1">
                    <mxGeometry x="80" y="50" width="320" height="50" as="geometry"/>
                </mxCell>
                <mxCell id="gwxy_xO0gbG-nAFQHQx_-67" value="Stream unlimited movies and TV shows on your phone, tablet, laptop, and TV." style="rounded=0;whiteSpace=wrap;html=1;fillColor=#eeeeee;strokeColor=#36393d;fontColor=#080808;align=left;" parent="gwxy_xO0gbG-nAFQHQx_-62" vertex="1">
                    <mxGeometry x="80" y="100" width="320" height="50" as="geometry"/>
                </mxCell>
                <mxCell id="gwxy_xO0gbG-nAFQHQx_-68" value="Image / animation" style="rounded=0;whiteSpace=wrap;html=1;fillColor=#FF99CC;strokeColor=#36393d;fontColor=#080808;" parent="gwxy_xO0gbG-nAFQHQx_-62" vertex="1">
                    <mxGeometry x="440" y="30" width="240" height="140" as="geometry"/>
                </mxCell>
                <mxCell id="gwxy_xO0gbG-nAFQHQx_-69" value="" style="group;fillColor=#eeeeee;strokeColor=#36393d;fontColor=#080808;" parent="gwxy_xO0gbG-nAFQHQx_-62" vertex="1" connectable="0">
                    <mxGeometry y="200" width="800" height="200" as="geometry"/>
                </mxCell>
                <mxCell id="gwxy_xO0gbG-nAFQHQx_-70" value="" style="rounded=0;whiteSpace=wrap;html=1;fillColor=#eeeeee;strokeColor=#36393d;fontColor=#080808;" parent="gwxy_xO0gbG-nAFQHQx_-69" vertex="1">
                    <mxGeometry width="800" height="200" as="geometry"/>
                </mxCell>
                <mxCell id="gwxy_xO0gbG-nAFQHQx_-71" value="" style="rounded=0;whiteSpace=wrap;html=1;fillColor=#eeeeee;strokeColor=#36393d;fontColor=#080808;" parent="gwxy_xO0gbG-nAFQHQx_-69" vertex="1">
                    <mxGeometry x="80" y="30" width="320" height="140" as="geometry"/>
                </mxCell>
                <mxCell id="gwxy_xO0gbG-nAFQHQx_-72" value="" style="rounded=0;whiteSpace=wrap;html=1;fillColor=#eeeeee;strokeColor=#36393d;fontColor=#080808;" parent="gwxy_xO0gbG-nAFQHQx_-69" vertex="1">
                    <mxGeometry x="400" y="30" width="320" height="140" as="geometry"/>
                </mxCell>
                <mxCell id="gwxy_xO0gbG-nAFQHQx_-73" value="Create profiles for children." style="rounded=0;whiteSpace=wrap;html=1;fillColor=#eeeeee;strokeColor=#36393d;fontColor=#080808;align=left;" parent="gwxy_xO0gbG-nAFQHQx_-69" vertex="1">
                    <mxGeometry x="400" y="50" width="320" height="50" as="geometry"/>
                </mxCell>
                <mxCell id="gwxy_xO0gbG-nAFQHQx_-74" value="Send children on adventures with their favourite characters in a space made just for them-free with your membership." style="rounded=0;whiteSpace=wrap;html=1;fillColor=#eeeeee;strokeColor=#36393d;fontColor=#080808;align=left;" parent="gwxy_xO0gbG-nAFQHQx_-69" vertex="1">
                    <mxGeometry x="400" y="100" width="320" height="50" as="geometry"/>
                </mxCell>
                <mxCell id="gwxy_xO0gbG-nAFQHQx_-75" value="Image / animation" style="rounded=0;whiteSpace=wrap;html=1;fillColor=#FF99CC;strokeColor=#36393d;fontColor=#080808;" parent="gwxy_xO0gbG-nAFQHQx_-69" vertex="1">
                    <mxGeometry x="110" y="30" width="240" height="140" as="geometry"/>
                </mxCell>
                <mxCell id="gwxy_xO0gbG-nAFQHQx_-77" value="" style="rounded=0;whiteSpace=wrap;html=1;fillColor=#eeeeee;strokeColor=#36393d;fontColor=#080808;" parent="1" vertex="1">
                    <mxGeometry x="142" y="1640" width="540" height="200" as="geometry"/>
                </mxCell>
                <mxCell id="gwxy_xO0gbG-nAFQHQx_-78" value="Questions? Call 000-800-040-1843" style="rounded=0;whiteSpace=wrap;html=1;align=left;fillColor=#eeeeee;strokeColor=#36393d;fontColor=#080808;" parent="1" vertex="1">
                    <mxGeometry x="142" y="1667" width="540" height="30" as="geometry"/>
                </mxCell>
                <mxCell id="gwxy_xO0gbG-nAFQHQx_-79" value="" style="rounded=0;whiteSpace=wrap;html=1;fillColor=#eeeeee;strokeColor=#36393d;fontColor=#080808;" parent="1" vertex="1">
                    <mxGeometry x="142" y="1697" width="540" height="90" as="geometry"/>
                </mxCell>
                <mxCell id="gwxy_xO0gbG-nAFQHQx_-81" value="" style="rounded=0;whiteSpace=wrap;html=1;fillColor=#eeeeee;strokeColor=#36393d;fontColor=#080808;" parent="1" vertex="1">
                    <mxGeometry x="142" y="1787" width="540" height="33" as="geometry"/>
                </mxCell>
                <mxCell id="gwxy_xO0gbG-nAFQHQx_-82" value="&amp;nbsp; &amp;nbsp; &amp;nbsp; &amp;nbsp; &amp;nbsp; &amp;nbsp; Language" style="rounded=0;whiteSpace=wrap;html=1;align=left;fillColor=#99FFFF;strokeColor=#36393d;fontColor=#080808;" parent="1" vertex="1">
                    <mxGeometry x="142" y="1787" width="116" height="33" as="geometry"/>
                </mxCell>
                <mxCell id="gwxy_xO0gbG-nAFQHQx_-83" value="Netflix India" style="rounded=0;whiteSpace=wrap;html=1;align=left;fillColor=#eeeeee;strokeColor=#36393d;fontColor=#080808;" parent="1" vertex="1">
                    <mxGeometry x="142" y="1820" width="540" height="20" as="geometry"/>
                </mxCell>
                <mxCell id="gwxy_xO0gbG-nAFQHQx_-89" value="" style="group;fillColor=#CCFFCC;strokeColor=#36393d;fontColor=#080808;" parent="1" vertex="1" connectable="0">
                    <mxGeometry x="142" y="1697" width="135" height="90" as="geometry"/>
                </mxCell>
                <mxCell id="gwxy_xO0gbG-nAFQHQx_-85" value="FAQ" style="rounded=0;whiteSpace=wrap;html=1;align=left;fillColor=#CCFFCC;strokeColor=#36393d;fontColor=#080808;" parent="gwxy_xO0gbG-nAFQHQx_-89" vertex="1">
                    <mxGeometry width="135" height="22.5" as="geometry"/>
                </mxCell>
                <mxCell id="gwxy_xO0gbG-nAFQHQx_-86" value="Investor Relations" style="rounded=0;whiteSpace=wrap;html=1;align=left;fillColor=#CCFFCC;strokeColor=#36393d;fontColor=#080808;" parent="gwxy_xO0gbG-nAFQHQx_-89" vertex="1">
                    <mxGeometry y="22.5" width="135" height="22.5" as="geometry"/>
                </mxCell>
                <mxCell id="gwxy_xO0gbG-nAFQHQx_-87" value="Privacy" style="rounded=0;whiteSpace=wrap;html=1;align=left;fillColor=#CCFFCC;strokeColor=#36393d;fontColor=#080808;" parent="gwxy_xO0gbG-nAFQHQx_-89" vertex="1">
                    <mxGeometry y="45" width="135" height="22.5" as="geometry"/>
                </mxCell>
                <mxCell id="gwxy_xO0gbG-nAFQHQx_-88" value="Speed test" style="rounded=0;whiteSpace=wrap;html=1;align=left;fillColor=#CCFFCC;strokeColor=#36393d;fontColor=#080808;" parent="gwxy_xO0gbG-nAFQHQx_-89" vertex="1">
                    <mxGeometry y="67.5" width="135" height="22.5" as="geometry"/>
                </mxCell>
                <mxCell id="gwxy_xO0gbG-nAFQHQx_-90" value="" style="group;fillColor=#eeeeee;strokeColor=#36393d;fontColor=#080808;" parent="1" vertex="1" connectable="0">
                    <mxGeometry x="547" y="1697" width="135" height="90" as="geometry"/>
                </mxCell>
                <mxCell id="gwxy_xO0gbG-nAFQHQx_-91" value="Media Centre" style="rounded=0;whiteSpace=wrap;html=1;align=left;fillColor=#CCFFCC;strokeColor=#36393d;fontColor=#080808;" parent="gwxy_xO0gbG-nAFQHQx_-90" vertex="1">
                    <mxGeometry width="135" height="22.5" as="geometry"/>
                </mxCell>
                <mxCell id="gwxy_xO0gbG-nAFQHQx_-92" value="Terms of use" style="rounded=0;whiteSpace=wrap;html=1;align=left;fillColor=#CCFFCC;strokeColor=#36393d;fontColor=#080808;" parent="gwxy_xO0gbG-nAFQHQx_-90" vertex="1">
                    <mxGeometry y="22.5" width="135" height="22.5" as="geometry"/>
                </mxCell>
                <mxCell id="gwxy_xO0gbG-nAFQHQx_-93" value="Contact Us" style="rounded=0;whiteSpace=wrap;html=1;align=left;fillColor=#CCFFCC;strokeColor=#36393d;fontColor=#080808;" parent="gwxy_xO0gbG-nAFQHQx_-90" vertex="1">
                    <mxGeometry y="45" width="135" height="22.5" as="geometry"/>
                </mxCell>
                <mxCell id="gwxy_xO0gbG-nAFQHQx_-95" value="Account" style="group;align=left;fillColor=#eeeeee;strokeColor=#36393d;fontColor=#080808;" parent="1" vertex="1" connectable="0">
                    <mxGeometry x="412" y="1697" width="135" height="90" as="geometry"/>
                </mxCell>
                <mxCell id="gwxy_xO0gbG-nAFQHQx_-96" value="Account" style="rounded=0;whiteSpace=wrap;html=1;align=left;fillColor=#CCFFCC;strokeColor=#36393d;fontColor=#080808;" parent="gwxy_xO0gbG-nAFQHQx_-95" vertex="1">
                    <mxGeometry width="135" height="22.5" as="geometry"/>
                </mxCell>
                <mxCell id="gwxy_xO0gbG-nAFQHQx_-97" value="Ways to watch" style="rounded=0;whiteSpace=wrap;html=1;align=left;fillColor=#CCFFCC;strokeColor=#36393d;fontColor=#080808;" parent="gwxy_xO0gbG-nAFQHQx_-95" vertex="1">
                    <mxGeometry y="22.5" width="135" height="22.5" as="geometry"/>
                </mxCell>
                <mxCell id="gwxy_xO0gbG-nAFQHQx_-98" value="Corporate information" style="rounded=0;whiteSpace=wrap;html=1;align=left;fillColor=#CCFFCC;strokeColor=#36393d;fontColor=#080808;" parent="gwxy_xO0gbG-nAFQHQx_-95" vertex="1">
                    <mxGeometry y="45" width="135" height="22.5" as="geometry"/>
                </mxCell>
                <mxCell id="gwxy_xO0gbG-nAFQHQx_-99" value="Only on Netflix" style="rounded=0;whiteSpace=wrap;html=1;align=left;fillColor=#CCFFCC;strokeColor=#36393d;fontColor=#080808;" parent="gwxy_xO0gbG-nAFQHQx_-95" vertex="1">
                    <mxGeometry y="67.5" width="135" height="22.5" as="geometry"/>
                </mxCell>
                <mxCell id="gwxy_xO0gbG-nAFQHQx_-100" value="Help Center" style="group;fillColor=#eeeeee;strokeColor=#36393d;fontColor=#080808;" parent="1" vertex="1" connectable="0">
                    <mxGeometry x="277" y="1697" width="135" height="90" as="geometry"/>
                </mxCell>
                <mxCell id="gwxy_xO0gbG-nAFQHQx_-101" value="help Center" style="rounded=0;whiteSpace=wrap;html=1;align=left;fillColor=#CCFFCC;strokeColor=#36393d;fontColor=#080808;" parent="gwxy_xO0gbG-nAFQHQx_-100" vertex="1">
                    <mxGeometry width="135" height="22.5" as="geometry"/>
                </mxCell>
                <mxCell id="gwxy_xO0gbG-nAFQHQx_-102" value="Jobs" style="rounded=0;whiteSpace=wrap;html=1;align=left;fillColor=#CCFFCC;strokeColor=#36393d;fontColor=#080808;" parent="gwxy_xO0gbG-nAFQHQx_-100" vertex="1">
                    <mxGeometry y="22.5" width="135" height="22.5" as="geometry"/>
                </mxCell>
                <mxCell id="gwxy_xO0gbG-nAFQHQx_-103" value="Cookie Preferences" style="rounded=0;whiteSpace=wrap;html=1;align=left;fillColor=#CCFFCC;strokeColor=#36393d;fontColor=#080808;" parent="gwxy_xO0gbG-nAFQHQx_-100" vertex="1">
                    <mxGeometry y="45" width="135" height="22.5" as="geometry"/>
                </mxCell>
                <mxCell id="gwxy_xO0gbG-nAFQHQx_-104" value="Legal Notices" style="rounded=0;whiteSpace=wrap;html=1;align=left;fillColor=#CCFFCC;strokeColor=#36393d;fontColor=#080808;" parent="gwxy_xO0gbG-nAFQHQx_-100" vertex="1">
                    <mxGeometry y="67.5" width="135" height="22.5" as="geometry"/>
                </mxCell>
                <mxCell id="gwxy_xO0gbG-nAFQHQx_-105" value="" style="ellipse;whiteSpace=wrap;html=1;aspect=fixed;strokeColor=#36393d;fillColor=#eeeeee;align=left;fontColor=#080808;" parent="1" vertex="1">
                    <mxGeometry x="158" y="1793.5" width="20" height="20" as="geometry"/>
                </mxCell>
                <mxCell id="gwxy_xO0gbG-nAFQHQx_-106" value="" style="ellipse;whiteSpace=wrap;html=1;aspect=fixed;strokeColor=#36393d;fillColor=#eeeeee;align=left;fontColor=#080808;" parent="1" vertex="1">
                    <mxGeometry x="738" y="1365" width="30" height="30" as="geometry"/>
                </mxCell>
                <mxCell id="gwxy_xO0gbG-nAFQHQx_-107" value="" style="ellipse;whiteSpace=wrap;html=1;aspect=fixed;strokeColor=#36393d;fillColor=#eeeeee;align=left;fontColor=#080808;" parent="1" vertex="1">
                    <mxGeometry x="738" y="1405" width="30" height="30" as="geometry"/>
                </mxCell>
                <mxCell id="gwxy_xO0gbG-nAFQHQx_-108" value="" style="ellipse;whiteSpace=wrap;html=1;aspect=fixed;strokeColor=#36393d;fillColor=#eeeeee;align=left;fontColor=#080808;" parent="1" vertex="1">
                    <mxGeometry x="738" y="1445" width="30" height="30" as="geometry"/>
                </mxCell>
                <mxCell id="gwxy_xO0gbG-nAFQHQx_-109" value="" style="ellipse;whiteSpace=wrap;html=1;aspect=fixed;strokeColor=#36393d;fillColor=#eeeeee;align=left;fontColor=#080808;" parent="1" vertex="1">
                    <mxGeometry x="738" y="1485" width="30" height="30" as="geometry"/>
                </mxCell>
                <mxCell id="gwxy_xO0gbG-nAFQHQx_-110" value="" style="ellipse;whiteSpace=wrap;html=1;aspect=fixed;strokeColor=#36393d;fillColor=#eeeeee;align=left;fontColor=#080808;" parent="1" vertex="1">
                    <mxGeometry x="658" y="1555" width="22.5" height="22.5" as="geometry"/>
                </mxCell>
                <mxCell id="gwxy_xO0gbG-nAFQHQx_-112" value="" style="ellipse;whiteSpace=wrap;html=1;aspect=fixed;fontSize=13;strokeColor=#36393d;fillColor=#eeeeee;align=left;fontColor=#080808;" parent="1" vertex="1">
                    <mxGeometry x="568" y="310" width="20" height="20" as="geometry"/>
                </mxCell>
                <mxCell id="gwxy_xO0gbG-nAFQHQx_-113" value="" style="ellipse;whiteSpace=wrap;html=1;aspect=fixed;fontSize=10;strokeColor=#36393d;fillColor=#eeeeee;align=right;fontColor=#080808;" parent="1" vertex="1">
                    <mxGeometry x="693" y="65" width="10" height="10" as="geometry"/>
                </mxCell>
                <mxCell id="2" value="Input" style="whiteSpace=wrap;html=1;fontColor=#080808;fillColor=#FFFF99;" parent="1" vertex="1">
                    <mxGeometry x="880" y="75" width="80" height="35" as="geometry"/>
                </mxCell>
                <mxCell id="3" value="Select" style="whiteSpace=wrap;html=1;fontColor=#080808;fillColor=#99FFFF;" parent="1" vertex="1">
                    <mxGeometry x="880" y="130" width="80" height="35" as="geometry"/>
                </mxCell>
                <mxCell id="4" value="Button" style="whiteSpace=wrap;html=1;fontColor=#080808;fillColor=#FFCCCC;" parent="1" vertex="1">
                    <mxGeometry x="880" y="180" width="80" height="35" as="geometry"/>
                </mxCell>
                <mxCell id="5" value="Image" style="whiteSpace=wrap;html=1;fontColor=#080808;fillColor=#FF66B3;" parent="1" vertex="1">
                    <mxGeometry x="880" y="235" width="80" height="35" as="geometry"/>
                </mxCell>
                <mxCell id="6" value="Link" style="whiteSpace=wrap;html=1;fontColor=#080808;fillColor=#CCFF99;" parent="1" vertex="1">
                    <mxGeometry x="880" y="290" width="80" height="35" as="geometry"/>
                </mxCell>
            </root>
        </mxGraphModel>
    </diagram>
    <diagram id="xeymZZCSMznekyoPFceY" name="Page-2">
        <mxGraphModel dx="1124" dy="620" grid="1" gridSize="10" guides="1" tooltips="1" connect="1" arrows="1" fold="1" page="1" pageScale="1" pageWidth="850" pageHeight="1100" math="0" shadow="0">
            <root>
                <mxCell id="6iTyNaZmBqS1_gVY6Ax0-0"/>
                <mxCell id="6iTyNaZmBqS1_gVY6Ax0-1" parent="6iTyNaZmBqS1_gVY6Ax0-0"/>
                <mxCell id="EW8Ca8EwRYNZMOwAGFG8-0" value="" style="rounded=0;whiteSpace=wrap;html=1;fillColor=#eeeeee;strokeColor=#36393d;fontColor=#080808;" vertex="1" parent="6iTyNaZmBqS1_gVY6Ax0-1">
                    <mxGeometry x="39" y="100" width="800" height="340" as="geometry"/>
                </mxCell>
                <mxCell id="wg4vVWrWtnVFMUsH4Hgz-0" value="" style="rounded=0;whiteSpace=wrap;html=1;fillColor=#eeeeee;strokeColor=#36393d;fontColor=#080808;" parent="6iTyNaZmBqS1_gVY6Ax0-1" vertex="1">
                    <mxGeometry x="39" y="40" width="800" height="60" as="geometry"/>
                </mxCell>
                <mxCell id="wg4vVWrWtnVFMUsH4Hgz-1" value="" style="rounded=0;whiteSpace=wrap;html=1;fillColor=#eeeeee;strokeColor=#36393d;fontColor=#080808;" parent="6iTyNaZmBqS1_gVY6Ax0-1" vertex="1">
                    <mxGeometry x="71" y="50" width="740" height="40" as="geometry"/>
                </mxCell>
                <mxCell id="wg4vVWrWtnVFMUsH4Hgz-2" value="NETFLIX" style="rounded=0;whiteSpace=wrap;html=1;fillColor=#eeeeee;strokeColor=#36393d;fontColor=#080808;" parent="6iTyNaZmBqS1_gVY6Ax0-1" vertex="1">
                    <mxGeometry x="71" y="50" width="120" height="40" as="geometry"/>
                </mxCell>
                <mxCell id="wg4vVWrWtnVFMUsH4Hgz-3" value="" style="rounded=0;whiteSpace=wrap;html=1;fillColor=#eeeeee;strokeColor=#36393d;fontColor=#080808;" parent="6iTyNaZmBqS1_gVY6Ax0-1" vertex="1">
                    <mxGeometry x="315" y="120" width="220" height="290" as="geometry"/>
                </mxCell>
                <mxCell id="wg4vVWrWtnVFMUsH4Hgz-4" value="" style="rounded=0;whiteSpace=wrap;html=1;fillColor=#eeeeee;strokeColor=#36393d;fontColor=#080808;" parent="6iTyNaZmBqS1_gVY6Ax0-1" vertex="1">
                    <mxGeometry x="340" y="150" width="170" height="110" as="geometry"/>
                </mxCell>
                <mxCell id="wg4vVWrWtnVFMUsH4Hgz-5" value="" style="rounded=0;whiteSpace=wrap;html=1;fillColor=#eeeeee;strokeColor=#36393d;fontColor=#080808;" parent="6iTyNaZmBqS1_gVY6Ax0-1" vertex="1">
                    <mxGeometry x="340" y="260" width="170" height="100" as="geometry"/>
                </mxCell>
                <mxCell id="wg4vVWrWtnVFMUsH4Hgz-6" value="Sign In" style="rounded=0;whiteSpace=wrap;html=1;fillColor=#eeeeee;strokeColor=#36393d;fontColor=#080808;align=left;" parent="6iTyNaZmBqS1_gVY6Ax0-1" vertex="1">
                    <mxGeometry x="340" y="150" width="170" height="30" as="geometry"/>
                </mxCell>
                <mxCell id="wg4vVWrWtnVFMUsH4Hgz-7" value="Email or phone number" style="rounded=0;whiteSpace=wrap;html=1;fillColor=#eeeeee;strokeColor=#36393d;fontColor=#080808;align=left;" parent="6iTyNaZmBqS1_gVY6Ax0-1" vertex="1">
                    <mxGeometry x="340" y="180" width="170" height="30" as="geometry"/>
                </mxCell>
                <mxCell id="wg4vVWrWtnVFMUsH4Hgz-8" value="Sign In" style="rounded=0;whiteSpace=wrap;html=1;fillColor=#eeeeee;strokeColor=#36393d;fontColor=#080808;align=center;" parent="6iTyNaZmBqS1_gVY6Ax0-1" vertex="1">
                    <mxGeometry x="340" y="220" width="170" height="20" as="geometry"/>
                </mxCell>
                <mxCell id="wg4vVWrWtnVFMUsH4Hgz-9" value="Remember me" style="rounded=0;whiteSpace=wrap;html=1;fillColor=#eeeeee;strokeColor=#36393d;fontColor=#080808;align=center;" parent="6iTyNaZmBqS1_gVY6Ax0-1" vertex="1">
                    <mxGeometry x="340" y="240" width="90" height="20" as="geometry"/>
                </mxCell>
                <mxCell id="wg4vVWrWtnVFMUsH4Hgz-10" value="Need help?" style="rounded=0;whiteSpace=wrap;html=1;fillColor=#eeeeee;strokeColor=#36393d;fontColor=#080808;align=center;" parent="6iTyNaZmBqS1_gVY6Ax0-1" vertex="1">
                    <mxGeometry x="440" y="240" width="70" height="20" as="geometry"/>
                </mxCell>
                <mxCell id="wg4vVWrWtnVFMUsH4Hgz-11" value="Login with Facebook" style="rounded=0;whiteSpace=wrap;html=1;fillColor=#eeeeee;strokeColor=#36393d;fontColor=#080808;align=center;" parent="6iTyNaZmBqS1_gVY6Ax0-1" vertex="1">
                    <mxGeometry x="340" y="270" width="120" height="20" as="geometry"/>
                </mxCell>
                <mxCell id="wg4vVWrWtnVFMUsH4Hgz-12" value="New to Netflix?" style="rounded=0;whiteSpace=wrap;html=1;fillColor=#eeeeee;strokeColor=#36393d;fontColor=#080808;align=left;" parent="6iTyNaZmBqS1_gVY6Ax0-1" vertex="1">
                    <mxGeometry x="340" y="290" width="90" height="20" as="geometry"/>
                </mxCell>
                <mxCell id="wg4vVWrWtnVFMUsH4Hgz-13" value="Sign up now" style="rounded=0;whiteSpace=wrap;html=1;fillColor=#eeeeee;strokeColor=#36393d;fontColor=#080808;align=left;" parent="6iTyNaZmBqS1_gVY6Ax0-1" vertex="1">
                    <mxGeometry x="430" y="290" width="70" height="20" as="geometry"/>
                </mxCell>
                <mxCell id="wg4vVWrWtnVFMUsH4Hgz-14" value="This page is preotected by Google reCAPTCHA to ensure you're not a bot. Learn More" style="rounded=0;whiteSpace=wrap;html=1;fillColor=#eeeeee;strokeColor=#36393d;fontColor=#080808;align=left;" parent="6iTyNaZmBqS1_gVY6Ax0-1" vertex="1">
                    <mxGeometry x="340" y="310" width="170" height="40" as="geometry"/>
                </mxCell>
            </root>
        </mxGraphModel>
    </diagram>
</mxfile>